<svg data-v-423bf9ae="" xmlns="http://www.w3.org/2000/svg" viewBox="0 0 312 97" class="iconLeft"><!----><!----><!----><g data-v-423bf9ae="" id="2e56cc38-db50-41e1-9219-978c7712470e" fill="black" transform="matrix(5.692599773406982,0,0,5.692599773406982,103.74134826660156,19.19271469116211)"><path d="M3.46 10.26L3.46 9.95L2.41 9.60L2.41 2.52L3.46 2.17L3.46 1.86L0.56 1.86L0.56 2.17L1.61 2.52L1.61 9.60L0.56 9.95L0.56 10.26ZM11.31 10.26L11.31 9.95L10.28 9.60L10.28 5.96C10.28 4.41 9.34 3.58 7.66 3.58C6.94 3.58 5.98 3.78 5.26 3.98L5.07 4.03L5.32 4.80L5.32 10.26L6.09 10.26L6.09 4.51C6.61 4.37 7.14 4.28 7.66 4.28C8.92 4.28 9.51 4.82 9.51 5.96L9.51 10.26ZM16.38 4.41L16.38 3.72L14.18 3.72L14.18 2.00C14.18 1.02 14.56 0.56 15.74 0.56L16.09 1.60L16.38 1.60L16.38-0.03C16.18-0.10 15.88-0.14 15.68-0.14C14.14-0.14 13.41 0.63 13.41 2.00L13.41 3.72L12.01 3.72L12.01 4.41L13.41 4.41L13.41 10.26L14.18 10.26L14.18 4.41ZM24.00 10.26L21.18 6.52C22.69 6.52 23.67 5.71 23.67 4.20C23.67 2.67 22.69 1.86 21.18 1.86L17.88 1.86L18.16 2.66L18.16 10.26L18.94 10.26L18.94 6.52L20.26 6.52L23.07 10.26ZM22.88 4.20C22.88 5.24 22.25 5.82 21.18 5.82L18.94 5.82L18.94 2.56L21.18 2.56C22.25 2.56 22.88 3.16 22.88 4.20ZM31.30 10.26L31.30 9.56C31.11 9.63 30.88 9.70 30.65 9.70C30.32 9.70 30.18 9.52 30.18 9.23L30.18 5.96C30.18 4.41 29.25 3.58 27.57 3.58C27.06 3.58 26.38 3.71 25.79 3.89L25.79 5.46L26.10 5.46L26.45 4.42C26.84 4.34 27.24 4.28 27.57 4.28C28.83 4.28 29.41 4.82 29.41 5.96L29.41 6.55L27.40 6.55C25.84 6.55 25.12 7.32 25.12 8.34C25.12 9.53 26.05 10.40 27.85 10.40C28.49 10.40 29.12 10.26 29.65 10.04C29.83 10.28 30.16 10.40 30.44 10.40C30.76 10.40 31.07 10.33 31.30 10.26ZM29.41 9.41C28.95 9.59 28.42 9.72 27.85 9.72C26.54 9.72 25.90 9.18 25.90 8.34C25.90 7.67 26.33 7.22 27.40 7.22L29.41 7.22ZM36.46 10.29L36.46 9.59C36.26 9.66 35.95 9.70 35.76 9.70C34.64 9.70 34.26 9.24 34.26 8.26L34.26 4.41L36.46 4.41L36.46 3.72L34.26 3.72L34.26 1.82L33.49 1.93L33.49 3.72L32.09 3.72L32.09 4.41L33.49 4.41L33.49 8.26C33.49 9.63 34.22 10.40 35.76 10.40C35.95 10.40 36.26 10.36 36.46 10.29Z"></path></g><!----><g data-v-423bf9ae="" id="7c9049f6-2f00-4ba4-acd9-fb0f039fa50a" transform="matrix(1.0370444059371948,0,0,1.0370444059371948,-0.48312604427337646,-0.41427329182624817)" stroke="none" fill="black"><ellipse stroke-linecap="round" stroke-linejoin="round" cx="42.412" cy="37.833" rx="41.912" ry="37.333"></ellipse><path stroke="#000" stroke-linecap="round" stroke-linejoin="round" d="M44.417 38.231l34.271-.75M78.688 37.481L61.901 70.453"></path><ellipse stroke="#000" stroke-linecap="round" stroke-linejoin="round" cx="37.833" cy="34.312" rx="7.924" ry="6.868"></ellipse><ellipse stroke="#000" stroke-linecap="round" stroke-linejoin="round" cx="29.733" cy="46.287" rx="7.925" ry="6.868"></ellipse><path stroke="#000" stroke-linecap="round" stroke-linejoin="round" d="M11.066 39.947c0 3.893 5.681 6.34 10.742 6.34"></path><ellipse stroke="#000" stroke-linecap="round" stroke-linejoin="round" cx="49.104" cy="47.343" rx="5.282" ry="5.987"></ellipse><ellipse stroke="#000" stroke-linecap="round" stroke-linejoin="round" cx="50.864" cy="45.758" rx="1.762" ry="1.584"></ellipse><path stroke="#000" stroke-linecap="round" stroke-linejoin="round" d="M84.323 38.89c0 30.37-22.053 54.944-49.308 54.944"></path></g><!----></svg>